<svg width="1024" height="1024" viewBox="0 0 1024 1024" fill="none" xmlns="http://www.w3.org/2000/svg">
  <defs>
    <linearGradient id="bgC" x1="120" y1="96" x2="900" y2="924" gradientUnits="userSpaceOnUse">
      <stop stop-color="#111C21"/>
      <stop offset="1" stop-color="#0B1117"/>
    </linearGradient>
    <linearGradient id="tileWarm" x1="202" y1="224" x2="510" y2="536" gradientUnits="userSpaceOnUse">
      <stop stop-color="#FFB867"/>
      <stop offset="1" stop-color="#F47D34"/>
    </linearGradient>
    <linearGradient id="tileCool" x1="522" y1="208" x2="838" y2="532" gradientUnits="userSpaceOnUse">
      <stop stop-color="#AAC0EE"/>
      <stop offset="1" stop-color="#6B85BA"/>
    </linearGradient>
    <linearGradient id="tileNeutral" x1="308" y1="540" x2="716" y2="814" gradientUnits="userSpaceOnUse">
      <stop stop-color="#1C2B40"/>
      <stop offset="1" stop-color="#162131"/>
    </linearGradient>
    <filter id="shadowC" x="128" y="150" width="768" height="744" filterUnits="userSpaceOnUse" color-interpolation-filters="sRGB">
      <feFlood flood-opacity="0" result="BackgroundImageFix"/>
      <feColorMatrix in="SourceAlpha" type="matrix" values="0 0 0 0 0 0 0 0 0 0 0 0 0 0 0 0 0 0 127 0" result="hardAlpha"/>
      <feOffset dy="24"/>
      <feGaussianBlur stdDeviation="24"/>
      <feColorMatrix type="matrix" values="0 0 0 0 0.0157 0 0 0 0 0.0431 0 0 0 0 0.0824 0 0 0 0.4 0"/>
      <feBlend mode="normal" in2="BackgroundImageFix" result="effect1_dropShadow_1_1"/>
      <feBlend mode="normal" in="SourceGraphic" in2="effect1_dropShadow_1_1" result="shape"/>
    </filter>
  </defs>

  <rect x="72" y="72" width="880" height="880" rx="204" fill="url(#bgC)"/>
  <rect x="72" y="72" width="880" height="880" rx="204" stroke="white" stroke-opacity="0.07" stroke-width="4"/>

  <g filter="url(#shadowC)">
    <rect x="176" y="214" width="320" height="308" rx="78" fill="url(#tileWarm)"/>
    <rect x="176" y="214" width="320" height="308" rx="78" stroke="white" stroke-opacity="0.16" stroke-width="4"/>
    <circle cx="250" cy="302" r="30" fill="white" fill-opacity="0.94"/>
    <rect x="294" y="280" width="128" height="18" rx="9" fill="white" fill-opacity="0.92"/>
    <rect x="294" y="314" width="92" height="14" rx="7" fill="white" fill-opacity="0.46"/>

    <rect x="528" y="198" width="320" height="308" rx="78" fill="url(#tileCool)"/>
    <rect x="528" y="198" width="320" height="308" rx="78" stroke="white" stroke-opacity="0.16" stroke-width="4"/>
    <circle cx="602" cy="286" r="30" fill="white" fill-opacity="0.94"/>
    <rect x="646" y="264" width="128" height="18" rx="9" fill="white" fill-opacity="0.92"/>
    <rect x="646" y="298" width="92" height="14" rx="7" fill="white" fill-opacity="0.46"/>

    <rect x="288" y="528" width="448" height="286" rx="86" fill="url(#tileNeutral)"/>
    <rect x="288" y="528" width="448" height="286" rx="86" stroke="white" stroke-opacity="0.14" stroke-width="4"/>

    <circle cx="512" cy="672" r="96" fill="#0E1724"/>
    <circle cx="512" cy="672" r="96" stroke="white" stroke-opacity="0.11" stroke-width="4"/>
    <path d="M462 672C462 644.386 484.386 622 512 622" stroke="#FF8A3D" stroke-width="20" stroke-linecap="round"/>
    <path d="M562 672C562 699.614 539.614 722 512 722" stroke="#7A9BE2" stroke-width="20" stroke-linecap="round"/>
    <circle cx="476" cy="672" r="16" fill="#FF8A3D"/>
    <circle cx="548" cy="672" r="16" fill="#7A9BE2"/>
    <rect x="488" y="666" width="48" height="12" rx="6" fill="white" fill-opacity="0.94"/>

    <path d="M402 418L470 484" stroke="white" stroke-opacity="0.12" stroke-width="18" stroke-linecap="round"/>
    <path d="M622 430L554 492" stroke="white" stroke-opacity="0.12" stroke-width="18" stroke-linecap="round"/>
  </g>
</svg>
